<svg xmlns="http://www.w3.org/2000/svg" viewBox="0 0 200 50" width="200" height="50">
  <!-- Style for our logo -->
  <style>
    .logo-text { font-family: 'Tajawal', 'Arial', sans-serif; font-weight: bold; }
    .arabic { font-size: 28px; fill: #FF7B8B; }
    .english { font-size: 28px; fill: #333333; }
    .icon { fill: #FF7B8B; }
  </style>
  
  <!-- Hanger icon -->
  <path class="icon" d="M35,10 L45,25 L60,25 C62.5,25 64,27 64,29 C64,31 62.5,33 60,33 L20,33 C17.5,33 16,31 16,29 C16,27 17.5,25 20,25 L35,25 L45,10 M35,10 L30,10 C30,6 33,3 37.5,3 C42,3 45,6 45,10 L40,10" stroke="#FF7B8B" stroke-width="2" fill="none"/>
  
  <!-- Text part of the logo -->
  <text x="75" y="30" class="logo-text arabic" text-anchor="start" direction="rtl">ستايلر</text>
  <text x="160" y="30" class="logo-text english" text-anchor="start">Styler</text>
</svg>
